<?xml version="1.0" encoding="UTF-8"?>
<svg id="w-farbig" xmlns="http://www.w3.org/2000/svg" xmlns:xlink="http://www.w3.org/1999/xlink" viewBox="0 0 283.45999 283.45999">
  <defs>
    <style>
      .cls-1 {
        fill: url(#Unbenannter_Verlauf_46-16);
      }

      .cls-2 {
        fill: url(#Unbenannter_Verlauf_46-15);
      }

      .cls-3 {
        fill: url(#Unbenannter_Verlauf_46-12);
      }

      .cls-4 {
        fill: url(#Unbenannter_Verlauf_46-11);
      }

      .cls-5 {
        fill: url(#Unbenannter_Verlauf_46-14);
      }

      .cls-6 {
        fill: url(#Unbenannter_Verlauf_46-13);
      }

      .cls-7 {
        fill: url(#Unbenannter_Verlauf_46-10);
      }

      .cls-8 {
        fill: url(#Unbenannter_Verlauf_46-4);
      }

      .cls-9 {
        fill: url(#Unbenannter_Verlauf_46-3);
      }

      .cls-10 {
        fill: url(#Unbenannter_Verlauf_46-8);
      }

      .cls-11 {
        fill: url(#Unbenannter_Verlauf_46-5);
      }

      .cls-12 {
        fill: url(#Unbenannter_Verlauf_46-2);
      }

      .cls-13 {
        fill: url(#Unbenannter_Verlauf_46-7);
      }

      .cls-14 {
        fill: url(#Unbenannter_Verlauf_46-9);
      }

      .cls-15 {
        fill: url(#Unbenannter_Verlauf_46-6);
      }

      .cls-16 {
        fill: url(#Unbenannter_Verlauf_34);
      }

      .cls-17 {
        fill: url(#Unbenannter_Verlauf_46);
      }
    </style>
    <linearGradient id="Unbenannter_Verlauf_46" data-name="Unbenannter Verlauf 46" x1="92.6553" y1="36.32199" x2="226.56296" y2="259.18175" gradientUnits="userSpaceOnUse">
      <stop offset=".18693" stop-color="#dad553"/>
      <stop offset=".55558" stop-color="#609d46"/>
    </linearGradient>
    <linearGradient id="Unbenannter_Verlauf_46-2" data-name="Unbenannter Verlauf 46" x1="98.5802" y1="28.98912" x2="234.88597" y2="255.84003" xlink:href="#Unbenannter_Verlauf_46"/>
    <linearGradient id="Unbenannter_Verlauf_46-3" data-name="Unbenannter Verlauf 46" x1="91.58492" y1="47.52194" x2="205.13947" y2="236.50844" xlink:href="#Unbenannter_Verlauf_46"/>
    <linearGradient id="Unbenannter_Verlauf_46-4" data-name="Unbenannter Verlauf 46" x1="41.03014" y1="70.43652" x2="177.26515" y2="297.16965" xlink:href="#Unbenannter_Verlauf_46"/>
    <linearGradient id="Unbenannter_Verlauf_46-5" data-name="Unbenannter Verlauf 46" x1="33.3641" y1="77.93965" x2="167.1586" y2="300.61108" xlink:href="#Unbenannter_Verlauf_46"/>
    <linearGradient id="Unbenannter_Verlauf_46-6" data-name="Unbenannter Verlauf 46" x1="99.70727" y1="27.55823" x2="236.50641" y2="255.23024" xlink:href="#Unbenannter_Verlauf_46"/>
    <linearGradient id="Unbenannter_Verlauf_46-7" data-name="Unbenannter Verlauf 46" x1="43.24817" y1="68.8614" x2="179.46331" y2="295.56147" xlink:href="#Unbenannter_Verlauf_46"/>
    <linearGradient id="Unbenannter_Verlauf_46-8" data-name="Unbenannter Verlauf 46" x1="70.70437" y1="49.55391" x2="206.50273" y2="275.56032" xlink:href="#Unbenannter_Verlauf_46"/>
    <linearGradient id="Unbenannter_Verlauf_46-9" data-name="Unbenannter Verlauf 46" x1="55.51703" y1="62.26912" x2="189.05882" y2="284.51997" xlink:href="#Unbenannter_Verlauf_46"/>
    <linearGradient id="Unbenannter_Verlauf_46-10" data-name="Unbenannter Verlauf 46" x1="87.429" y1="39.34574" x2="221.60944" y2="262.6595" xlink:href="#Unbenannter_Verlauf_46"/>
    <linearGradient id="Unbenannter_Verlauf_46-11" data-name="Unbenannter Verlauf 46" x1="110.34722" y1="23.18563" x2="244.25299" y2="246.04224" xlink:href="#Unbenannter_Verlauf_46"/>
    <linearGradient id="Unbenannter_Verlauf_46-12" data-name="Unbenannter Verlauf 46" x1="77.28443" y1="36.32892" x2="219.21162" y2="272.53543" xlink:href="#Unbenannter_Verlauf_46"/>
    <linearGradient id="Unbenannter_Verlauf_46-13" data-name="Unbenannter Verlauf 46" x1="59.06888" y1="54.25807" x2="201.49932" y2="291.30213" xlink:href="#Unbenannter_Verlauf_46"/>
    <linearGradient id="Unbenannter_Verlauf_46-14" data-name="Unbenannter Verlauf 46" x1="51.20985" y1="65.16486" x2="184.63108" y2="287.21508" xlink:href="#Unbenannter_Verlauf_46"/>
    <linearGradient id="Unbenannter_Verlauf_46-15" data-name="Unbenannter Verlauf 46" x1="71.01389" y1="50.03973" x2="206.1193" y2="274.89289" xlink:href="#Unbenannter_Verlauf_46"/>
    <linearGradient id="Unbenannter_Verlauf_46-16" data-name="Unbenannter Verlauf 46" x1="68.42798" y1="80.58398" x2="182.1686" y2="269.88016" xlink:href="#Unbenannter_Verlauf_46"/>
    <linearGradient id="Unbenannter_Verlauf_34" data-name="Unbenannter Verlauf 34" x1="-64.41562" y1="738.23756" x2="338.28434" y2="-258.6625" gradientTransform="translate(0 363.75175) scale(1 -1)" gradientUnits="userSpaceOnUse">
      <stop offset=".4" stop-color="#dad553"/>
      <stop offset=".6" stop-color="#609d46"/>
    </linearGradient>
  </defs>
  <g>
    <path class="cls-17" d="M128.91324,95.13506c-1.39075.59302-2.71478,1.34125-4.04938,2.06287-1.28973.80719-2.61438,1.55798-3.83752,2.47717-1.85797,1.29913-3.63287,2.7204-5.32654,4.24023,5.42609,4.38599,11.39301,8.11877,17.70337,11.10205l7.78412-17.99414c.76587-1.78253,1.53174-3.56506,2.29749-5.34766-2.01556.02771-4.0354.23804-6.02283.65399-2.93243.56946-5.79443,1.57001-8.54871,2.80548Z"/>
    <path class="cls-12" d="M139.20792,117.5233c6.57294,2.60565,13.45349,4.41309,20.44843,5.36475-.04932-2.31012-.22516-4.61328-.52295-6.89374-.48151-3.01819-1.12469-6.00964-2.11218-8.87891-1.01691-2.85004-2.24799-5.62067-3.83795-8.15924-1.07098-1.7594-2.31787-3.40021-3.69977-4.90717-.80896,1.83832-1.61786,3.67657-2.4267,5.51495l-7.84888,17.95935Z"/>
    <path class="cls-9" d="M111.37619,100.1787c2.03119-1.84131,4.17877-3.55981,6.47003-5.09937,1.36426-.98846,2.84863-1.8125,4.29535-2.68146,1.50037-.78845,2.98956-1.59436,4.565-2.24365,1.30035-.55975,2.63123-1.06195,3.9801-1.51721-9.26526-.8667-18.17987.71954-26.1626,4.38049,2.13727,2.51855,4.42395,4.91284,6.85211,7.16119Z"/>
    <path class="cls-8" d="M86.7902,151.80925c.14539-2.22803.40662-4.4458.70496-6.65399.82153-5.09564,2.14496-10.09515,3.90826-14.92957l-13.56964-5.87012c-.37061-.15924-.74103-.31885-1.11163-.47803-.93719,2.85724-1.60925,5.81122-2.04858,8.86005-.94501,6.5578-.61908,13.04297.84705,19.14673,3.75116-.29108,7.51776-.29266,11.26959-.07507Z"/>
    <path class="cls-11" d="M91.20481,178.5761c-.51318-1.16296-1.01355-2.33124-1.40753-3.53473-1.13861-3.20209-1.96021-6.50323-2.44067-9.83881-.30145-1.66315-.40234-3.3421-.5752-5.01678-.04315-.74146-.05975-1.48389-.08575-2.22607-3.14545-.20203-6.30072-.24286-9.44299-.07141,2.87805,7.93225,7.716,15.05072,13.95215,20.68781Z"/>
    <path class="cls-15" d="M176.54233,129.09221c-3.89038.28876-7.79712.27728-11.68561.02563-.55841,8.19775-2.55475,16.26764-5.6275,23.84259l4.09491,1.79114,10.65833,4.70325c1.4436-3.7262,2.61969-7.69196,3.21765-11.84186.91461-6.34692.61139-12.62555-.65778-18.52075Z"/>
    <path class="cls-13" d="M112.37143,163.65245c-6.44141-2.479-13.1568-4.24451-19.98773-5.15265.06641,1.97546.22217,3.94409.50287,5.89423.38806,3.02844,1.08728,6.00262,2.05841,8.8642.44684,1.44977,1.06836,2.82013,1.64801,4.21118.68695,1.33154,1.32941,2.69385,2.12921,3.95514,1.09753,1.81549,2.37903,3.508,3.80756,5.0545l2.72919-6.37103,7.11249-16.45557Z"/>
    <path class="cls-10" d="M107.79819,112.38854c-3.40363,4.41339-6.28632,9.23511-8.6424,14.3056l24.55402,10.73096,7.40564-17.11938c-6.961-3.29669-13.53119-7.46216-19.48523-12.37689-1.33527,1.43347-2.61719,2.92004-3.83203,4.45972Z"/>
    <path class="cls-14" d="M121.24057,143.13298l-24.50323-10.59991c-1.60419,4.38977-2.81177,8.9187-3.57776,13.51593-.31372,2.07678-.53888,4.1687-.67474,6.26337,7.65631.93073,15.17627,2.84808,22.36365,5.60919l6.23975-14.43634.15234-.35223Z"/>
    <path class="cls-7" d="M159.50632,128.61046c-7.74585-.97546-15.35614-2.94061-22.60651-5.80585l-7.48059,17.1167,24.73346,10.8186c2.16577-5.26227,3.7572-10.75568,4.67792-16.35352.32227-1.91504.53931-3.84375.67572-5.77594Z"/>
    <path class="cls-4" d="M161.9686,105.40319c1.12524,3.20416,1.86047,6.50635,2.40771,9.8266.3924,2.7348.59296,5.4787.63416,8.21844,3.28015.23108,6.57416.29504,9.85394.12439-2.8927-8.44061-7.81616-15.99481-14.4267-21.93463.55304,1.23993,1.06885,2.49475,1.53088,3.7652Z"/>
    <path class="cls-3" d="M160.91861,160.28392l-4.21912-1.82361c-2.33221,4.57532-5.0871,8.93945-8.25653,12.99744-1.29987,1.62347-2.65662,3.2052-4.08008,4.72717,2.85785,2.62866,5.56049,5.43188,8.03906,8.42725,7.92963-4.71472,14.52374-11.57275,19.02161-19.82812l-10.50494-4.50012Z"/>
    <path class="cls-6" d="M80.37455,118.48607l13.44891,5.87762c2.57074-5.48755,5.72015-10.71259,9.45807-15.50842,1.28839-1.60999,2.64368-3.1734,4.05597-4.68634-2.86029-2.68146-5.53333-5.55957-8.01068-8.60095-8.76379,5.18787-15.91449,12.89618-20.30139,22.32495.44965.19788.89948.39532,1.34912.59314Z"/>
    <path class="cls-5" d="M122.98984,185.39147c2.74713-1.28381,5.42352-2.75812,7.9248-4.52686,1.69208-1.20941,3.34131-2.49121,4.91467-3.86603-5.47443-4.34326-11.48175-8.01422-17.8335-10.95593l-7.20447,16.47095-2.74988,6.23169c.03815.01453.07587.02936.11407.04376,2.08942-.0072,4.1861-.21643,6.2486-.638,2.92822-.62634,5.81549-1.52142,8.58569-2.75958Z"/>
    <path class="cls-2" d="M144.17069,168.1151c2.84741-3.69745,5.33942-7.6745,7.45502-11.84778l-24.68695-10.67035-.15869.3631-6.28357,14.36554c7.06152,3.28577,13.73792,7.41547,19.79095,12.33624,1.35565-1.45892,2.646-2.98248,3.88324-4.54675Z"/>
    <path class="cls-1" d="M139.96293,180.48845c-1.90686,1.69604-3.93854,3.25983-6.03278,4.73267-2.76111,1.92316-5.73694,3.54742-8.81799,4.95618-1.3316.58362-2.69891,1.08972-4.08521,1.54578,9.08777.84186,17.97253-.75122,25.82068-4.22656-2.14331-2.47491-4.45734-4.80548-6.8847-7.00806Z"/>
  </g>
  <path class="cls-16" d="M240.31601,165.30141c-.20001-.29999-.20001-.70001,0-1l27.20001-67.80002c.79999-1.89999-.60001-3.89999-2.60001-3.89999h-25.99997c-3.09998,0-5.79999,1.89999-6.79999,4.79999h0c-9.70001,24-21.40002,50.20001-33.90002,77.89999-13.59998,27.70001-42.40002,47.5-75.59998,46.70001-42.40002-1.10001-77.29999-35.10001-79.5-77.39999-1.5-29.10001,12.29999-55.29999,34-71,.40002-.29999.90002-.60001,1.29999-.89999.29999-.20001.70001-.5,1.09998-.70001.90002-.60001,1.90002-1.20001,2.79999-1.79999,0,0,.20001,0,.29999-.20001,12.40002-7.5,27-11.89999,42.5-11.89999,28.5,0,53.70001,14.60001,68.5,36.79999,1.5,2.29999,5,2,6-.60001l.40002-.89999c2.59998-6.89999.29999-31.79999-19.59998-48.89999-5.79999-5-16.20001-10.5-25.90002-13.5-5.70001-1.79999-17.20001-4.20001-25.79999-4.5h-6.70001c-60.20001,1.5-109.59998,49.10001-111.90002,109.39999-2.5,65.39999,49.90002,119.30002,114.70001,119.30002h.29999c12.90002,0,25.5-1.90002,37.29999-5.79999,21.90002-7.29999,41-21.09998,54.59998-38.79999,2.29999-3,4.20001-5.5,6.20001-8.70001,0-.20001.40002-.20001.5,0l11,16c4.20001,6.59998,11.40002,10.59998,19.20001,10.59998h14.20001c4.39999,0,7.10001-4.79999,4.89999-8.60001h0l-32.69998-54.59998Z"/>
</svg>